# xmcd CD database file
#
# Track frame offsets:
#	150
#	11592
#	25234
#	40008
#	53600
#	65455
#	76793
#	90862
#	104468
#	124095
#	134590
#	148387
#	161483
#	174289
#	188218
#	202391
#	217015
#	227911
#	241415
#	256918
#
# Disc length: 3605 seconds
#
# Revision: 0
# Processed by: cddbd v1.5.2PL0 Copyright (c) Steve Scherf et al.
# Submitted via: CDex 1.70beta2
#
DISCID=170e1314
DTITLE=Bing Crosby - Duets With Friends
DYEAR=2002
DGENRE=Jazz
TTITLE0=With Louis Armstrong - Gone Fishin'
TTITLE1=With The Mills Brothers - Dinah
TTITLE2=With Judy Garland - Connecticut
TTITLE3=With The Andrews Sisters - Pistol Packin' Mama
TTITLE4=With Bob Hope - The Road to Morocco
TTITLE5=With Peggy Lee and Bob Hope - The Merry Go Run Around
TTITLE6=With Eddie Cantor - Alexander's Ragtime Band
TTITLE7=With The Andrews Sisters - S'posin'
TTITLE8=With Louis Arsmstrong and Frances Langford - Pennies From Heaven
TTITLE9=With Fred Astaire - A Couple Of Song And Dance Men
TTITLE10=With Dixie Lee Crosby - A Fine Romance
TTITLE11=With Peggy Lee - The Moon Came Up With A Great Idea
TTITLE12=With Bob Hope - Chicago Style
TTITLE13=With Johnny Mercer - Small Fry
TTITLE14=With The Mills Brothers - Shine
TTITLE15=With Al Jolson - The Spaniard That Blighted My Life
TTITLE16=With Bob Hope - Put It There, Pal
TTITLE17=With Connie Boswell - Basin Street Blues
TTITLE18=With Jane Wyman - In The Cool, Cool, Cool Of The Evening
TTITLE19=With The Mills Brothers - My Honey's Lovin' Arms
EXTD=YEAR: 2002
EXTT0=
EXTT1=
EXTT2=
EXTT3=
EXTT4=
EXTT5=
EXTT6=
EXTT7=
EXTT8=
EXTT9=
EXTT10=
EXTT11=
EXTT12=
EXTT13=
EXTT14=
EXTT15=
EXTT16=
EXTT17=
EXTT18=
EXTT19=
PLAYORDER=
